Coordinates
version=1
nRows=5
nColumns=63
inDegrees=yes

Units are S.I. units (second, meters, Newtons, ...)
If the header above contains a line with 'inDegrees', this indicates whether rotational values are in degrees (yes) or radians (no).

endheader
time	pelvis_tilt	pelvis_list	pelvis_rotation	pelvis_tx	pelvis_ty	pelvis_tz	hip_flexion_r	hip_adduction_r	hip_rotation_r	knee_angle_r	knee_angle_r_beta	ankle_angle_r	subtalar_angle_r	mtp_angle_r	hip_flexion_l	hip_adduction_l	hip_rotation_l	knee_angle_l	knee_angle_l_beta	ankle_angle_l	subtalar_angle_l	mtp_angle_l	L5_S1_Flex_Ext	L5_S1_Lat_Bending	L5_S1_axial_rotation	L4_L5_Flex_Ext	L4_L5_Lat_Bending	L4_L5_axial_rotation	L3_L4_Flex_Ext	L3_L4_Lat_Bending	L3_L4_axial_rotation	L2_L3_Flex_Ext	L2_L3_Lat_Bending	L2_L3_axial_rotation	L1_L2_Flex_Ext	L1_L2_Lat_Bending	L1_L2_axial_rotation	L1_T12_Flex_Ext	L1_T12_Lat_Bending	L1_T12_axial_rotation	Abs_r3	Abs_r2	Abs_r1	Abs_t1	Abs_t2	neck_flexion	neck_bending	neck_rotation	arm_flex_r	arm_add_r	arm_rot_r	elbow_flex_r	pro_sup_r	wrist_flex_r	wrist_dev_r	arm_flex_l	arm_add_l	arm_rot_l	elbow_flex_l	pro_sup_l	wrist_flex_l	wrist_dev_l
      2.13333333	     -3.18864269	    -20.04762352	     87.74534820	      0.19648808	      0.79399189	      0.63287803	     21.45833973	     -4.86645984	    -12.23853057	     11.63647717	      0.20309484	     19.73459373	     12.33360656	      0.00000000	     19.64563687	      0.44045508	     -0.68253138	      7.50399373	      0.13096940	     10.63583041	      1.54355160	      0.00000000	      0.30090896	     -1.06410791	      0.52437311	      0.55881803	     -1.41526352	      0.55714643	      0.49436333	     -2.58727197	      0.55714643	      0.34390885	     -2.58727197	      0.45882647	      0.27942406	     -2.16992884	      0.42605315	      0.17193938	     -1.64830315	      0.39327983	      2.14936262	    -12.03740147	      2.91640593	      0.00000000	      0.00000000	     28.14879914	      7.63803361	    -14.84503659	    -67.66529464	    -41.51984241	     -3.72884787	    146.28392713	     88.08692310	     23.86619057	    -12.04021720	     11.14930907	    -15.04319046	     40.42773986	     54.23303984	     89.16704774	    -13.25543461	      3.79092103
      2.15000000	     -3.45065078	    -20.13018427	     87.53656146	      0.19767169	      0.79357916	      0.63361651	     21.71251160	     -5.04563730	    -12.17228420	     11.80682468	      0.20606796	     20.11245960	     12.51084126	      0.00000000	     19.90644206	      0.54746121	     -1.21092073	      7.80614112	      0.13624286	     10.82339844	      1.88221921	      0.00000000	      0.26985783	     -1.12096389	      0.47375240	      0.50115297	     -1.49088198	      0.50336192	      0.44334942	     -2.72551161	      0.50336192	      0.30842051	     -2.72551161	      0.41453335	      0.25058998	     -2.28586957	      0.38492382	      0.15419676	     -1.73637307	      0.35531430	      1.92756748	    -12.68056777	      2.63486871	      0.00000000	      0.00000000	     28.05643137	      7.97263484	    -15.07309606	    -67.45144325	    -39.70368191	    -11.66657787	    149.14360783	     87.00266164	     45.59886672	    -11.44143660	     10.97360108	    -15.45853885	     40.03289003	     54.23434729	     89.13181760	    -13.01641092	      3.81142309
      2.16666667	     -3.80091349	    -20.22416078	     87.41009494	      0.19911221	      0.79402355	      0.63332447	     21.80941383	     -5.30419431	    -12.29159649	     11.74445172	      0.20497935	     20.37353398	     12.82735690	      0.00000000	     20.07595711	      0.74320454	     -1.86198068	      7.98008071	      0.13927868	     10.74059547	      2.51904636	      0.00000000	      0.24597150	     -1.23279299	      0.44946978	      0.45679368	     -1.63961467	      0.47756164	      0.40410658	     -2.99741287	      0.47756164	      0.28112083	     -2.99741287	      0.39328606	      0.22840914	     -2.51391146	      0.36519420	      0.14054812	     -1.90959634	      0.33710233	      1.75694986	    -13.94560082	      2.49981607	      0.00000000	      0.00000000	     27.88625714	      8.53826567	    -17.30902393	    -67.22545631	    -38.08946913	    -16.49862047	    149.74789434	     83.42718375	     60.48872261	    -17.84846333	     10.73347528	    -16.09834158	     39.65450039	     54.45856968	     89.09052786	    -12.63764469	      3.93805466
      2.18333333	     -4.01448141	    -20.26418539	     87.37895674	      0.20040692	      0.79482881	      0.63286083	     21.75729686	     -5.41791179	    -12.36684889	     11.51726245	      0.20101415	     20.53938106	     12.95780787	      0.00000000	     20.19138555	      0.85363748	     -2.20348590	      8.17357056	      0.14265572	     10.58385979	      2.83584476	      0.00000000	      0.22123602	     -1.33582764	      0.33821236	      0.41085742	     -1.77665076	      0.35935063	      0.36346866	     -3.24793132	      0.35935063	      0.25285065	     -3.24793132	      0.29593582	      0.20543977	     -2.72401972	      0.27479754	      0.12641426	     -2.06919701	      0.25365927	      1.58026678	    -15.11114942	      1.88103568	      0.00000000	      0.00000000	     27.56363570	      9.41061663	    -19.43159558	    -67.40396724	    -37.17573150	    -20.18622616	    149.86584325	     76.27172528	     67.23346469	    -21.72884420	     10.08407092	    -16.81336785	     38.40791146	     55.06478461	     89.07345047	    -11.95228820	      4.18993016
      2.20000000	     -4.06890318	    -20.15823096	     87.16715894	      0.20134412	      0.79581101	      0.63253608	     21.66256955	     -5.35825893	    -12.39308433	     11.43034560	      0.19949717	     20.64405334	     13.11484976	      0.00000000	     20.14472831	      0.78713579	     -2.51261113	      8.38490964	      0.14634428	     10.57593457	      2.93400096	      0.00000000	      0.17750611	     -1.41638745	      0.18725354	      0.32964661	     -1.88379530	      0.19895689	      0.29162480	     -3.44380444	      0.19895689	      0.20287174	     -3.44380444	      0.16384685	      0.16483218	     -2.88829728	      0.15214350	      0.10142699	     -2.19398415	      0.14044015	      1.26790843	    -16.02245807	      1.04144801	      0.00000000	      0.00000000	     26.98068229	     10.21066437	    -21.23844089	    -67.25241208	    -35.72676155	    -26.49625702	    149.91029272	     69.08162724	     68.41434604	    -22.93655537	      9.20385323	    -17.47323867	     36.78461798	     55.87921636	     89.07041127	    -11.95533289	      4.27238582
